<svg width="205" height="205" viewBox="0 0 205 205" fill="none" xmlns="http://www.w3.org/2000/svg">
<g filter="url(#filter0_d_142_562)">
<g clip-path="url(#clip0_142_562)">
<path d="M151.032 198H53.9675C28.0298 198 7 176.971 7 151.028V53.9659C7 28.029 28.0298 7 53.9675 7H151.032C176.97 7 198 28.029 198 53.9659V151.028C198.007 176.971 176.977 198 151.032 198Z" fill="white"/>
<path d="M102.5 28.8579L64.6843 44.5238L86.4111 66.2511C90.6577 61.9753 96.429 59.5615 102.455 59.5409C108.482 59.5202 114.269 61.8943 118.545 66.1409C122.821 70.3876 125.235 76.1588 125.255 82.1851C125.276 88.2114 122.902 93.9991 118.655 98.2749L150.632 66.2939L152.728 64.1975C149.01 53.8547 142.19 44.911 133.201 38.5865C124.212 32.262 113.491 28.8647 102.5 28.8579Z" fill="#4285F4"/>
<path d="M102.5 105.031C98.0075 105.03 93.6159 103.698 89.88 101.203C86.1441 98.7078 83.2314 95.1614 81.5099 91.0118C79.7883 86.8623 79.3351 82.2955 80.2074 77.8885C81.0798 73.4815 83.2385 69.4318 86.4111 66.251L64.6843 44.5237C59.7109 49.4839 55.7668 55.3781 53.0786 61.8675C50.3904 68.3569 49.0111 75.3136 49.0201 82.3378C49.0201 105.899 61.1338 120.666 75.3857 135.818C76.3414 136.795 77.1366 137.878 78.0378 138.891L118.473 98.455C114.227 102.671 108.484 105.036 102.5 105.031Z" fill="#FFBA00"/>
<path d="M102.5 28.8579C88.3161 28.8579 74.7132 34.4924 64.6838 44.5218C54.6543 54.5513 49.0199 68.1541 49.0199 82.3379C49.009 88.6118 49.9935 94.8477 51.9367 100.813L120.661 32.0913C114.842 29.9651 108.696 28.8709 102.5 28.8579Z" fill="#0066DA"/>
<path d="M107.319 172.666C112.177 159.15 119.487 146.646 128.882 135.783C144.201 120.217 155.98 105.901 155.98 82.338C155.967 76.1426 154.874 69.9968 152.749 64.1772L78.0376 138.889C86.6389 148.666 93.1723 160.083 97.2444 172.452C97.5861 173.505 98.2474 174.427 99.1364 175.088C100.025 175.748 101.098 176.116 102.206 176.14C103.313 176.163 104.4 175.841 105.317 175.219C106.233 174.596 106.933 173.704 107.319 172.666Z" fill="#00AC47"/>
<path d="M64.6842 44.5237C59.7107 49.4839 55.7666 55.3781 53.0784 61.8675C50.3902 68.3569 49.0109 75.3136 49.0199 82.3378C49.009 88.6117 49.9935 94.8476 51.9367 100.813L86.4559 66.2938L64.6842 44.5237Z" fill="#EA4435"/>
</g>
</g>
<defs>
<filter id="filter0_d_142_562" x="0.888" y="0.888" width="203.224" height="203.224" filterUnits="userSpaceOnUse" color-interpolation-filters="sRGB">
<feFlood flood-opacity="0" result="BackgroundImageFix"/>
<feColorMatrix in="SourceAlpha" type="matrix" values="0 0 0 0 0 0 0 0 0 0 0 0 0 0 0 0 0 0 127 0" result="hardAlpha"/>
<feOffset/>
<feGaussianBlur stdDeviation="3.056"/>
<feComposite in2="hardAlpha" operator="out"/>
<feColorMatrix type="matrix" values="0 0 0 0 0 0 0 0 0 0 0 0 0 0 0 0 0 0 0.15 0"/>
<feBlend mode="normal" in2="BackgroundImageFix" result="effect1_dropShadow_142_562"/>
<feBlend mode="normal" in="SourceGraphic" in2="effect1_dropShadow_142_562" result="shape"/>
</filter>
<clipPath id="clip0_142_562">
<rect x="7" y="7" width="191" height="191" rx="47.368" fill="white"/>
</clipPath>
</defs>
</svg>
